<svg width="26" height="29" viewBox="0 0 26 29" fill="none" xmlns="http://www.w3.org/2000/svg">
<path fill-rule="evenodd" clip-rule="evenodd" d="M0 3.54545C0 1.58836 1.56808 0 3.50018 0H8.50043C8.89828 6.00504e-09 9.27983 0.160088 9.56115 0.445046C9.84246 0.730003 10.0005 1.11649 10.0005 1.51948C10.0005 1.92247 9.84246 2.30896 9.56115 2.59392C9.27983 2.87887 8.89828 3.03896 8.50043 3.03896H3.50018C3.36756 3.03896 3.24038 3.09232 3.14661 3.18731C3.05283 3.2823 3.00015 3.41112 3.00015 3.54545V24.8182C3.00015 25.0978 3.22416 25.3247 3.50018 25.3247H8.50043C8.89828 25.3247 9.27983 25.4848 9.56115 25.7697C9.84246 26.0547 10.0005 26.4412 10.0005 26.8442C10.0005 27.2471 9.84246 27.6336 9.56115 27.9186C9.27983 28.2035 8.89828 28.3636 8.50043 28.3636H3.50018C2.57187 28.3636 1.68159 27.9901 1.02518 27.3252C0.368768 26.6603 0 25.7585 0 24.8182V3.54545ZM20.8811 12.6623H9.50048C9.10264 12.6623 8.72109 12.8224 8.43977 13.1074C8.15845 13.3923 8.00041 13.7788 8.00041 14.1818C8.00041 14.5848 8.15845 14.9713 8.43977 15.2563C8.72109 15.5412 9.10264 15.7013 9.50048 15.7013H20.8811L16.9409 19.6925C16.7935 19.8316 16.6753 19.9993 16.5933 20.1857C16.5113 20.3721 16.4672 20.5733 16.4637 20.7773C16.4601 20.9814 16.4972 21.184 16.5726 21.3732C16.648 21.5624 16.7603 21.7343 16.9028 21.8786C17.0452 22.0229 17.2149 22.1366 17.4017 22.213C17.5885 22.2894 17.7885 22.327 17.99 22.3234C18.1914 22.3198 18.39 22.2751 18.574 22.1921C18.758 22.109 18.9236 21.9893 19.061 21.84L25.5613 15.2556C25.8422 14.9707 26 14.5845 26 14.1818C26 13.7792 25.8422 13.393 25.5613 13.1081L19.061 6.52364C18.9236 6.37435 18.758 6.25461 18.574 6.17156C18.39 6.08851 18.1914 6.04386 17.99 6.04026C17.7885 6.03666 17.5885 6.07419 17.4017 6.15061C17.2149 6.22703 17.0452 6.34078 16.9028 6.48506C16.7603 6.62935 16.648 6.80122 16.5726 6.99043C16.4972 7.17963 16.4601 7.38228 16.4637 7.58631C16.4672 7.79033 16.5113 7.99153 16.5933 8.17792C16.6753 8.36431 16.7935 8.53206 16.9409 8.67117L20.8811 12.6623Z" fill="black"/>
</svg>
